<svg id="header-apploud-logo" data-name="Layer 1" xmlns="http://www.w3.org/2000/svg" viewBox="0 0 77.57 77.57">
	<path
		fill="#3eaf7c"
		d="M85.67,63.68H79.34a2,2,0,0,0-2.17,2.21V67a2.07,2.07,0,0,0,2.14,2.21h0.51c3.73,0,5.09,0,5.58-.09v0c5.26,0,8.4,3.24,8.4,8.67s-3.06,8.75-8.41,8.75l-6.28,0L71.63,65.41a2.3,2.3,0,0,0-2.37-1.73H66.82a2.34,2.34,0,0,0-2.36,1.7L56,89.36a2,2,0,0,0,.15,1.89,2,2,0,0,0,1.72.75H59.6A2.31,2.31,0,0,0,62,90.23L68,71,74.1,90.27A2.32,2.32,0,0,0,76.48,92h9.19c8.9,0,14.42-5.44,14.42-14.2S94.57,63.68,85.67,63.68Z"
		transform="translate(-39.17 -39.05)"></path>
	<path
		fill="#3eaf7c"
		d="M78,39.05a38.78,38.78,0,1,0,38.79,38.78A38.83,38.83,0,0,0,78,39.05Zm0,71.31a32.53,32.53,0,1,1,32.53-32.53A32.56,32.56,0,0,1,78,110.36Z"
		transform="translate(-39.17 -39.05)"></path>
</svg>
